<svg xmlns="http://www.w3.org/2000/svg" xmlns:xlink="http://www.w3.org/1999/xlink" viewBox="0 0 1500 1500" width="528" height="528" preserveAspectRatio="xMidYMid meet" style="width: 100%; height: 100%; transform: translate3d(0px, 0px, 0px); content-visibility: visible;"><defs><clipPath id="__lottie_element_2"><rect width="1500" height="1500" x="0" y="0"/></clipPath><linearGradient id="__lottie_element_6" spreadMethod="pad" gradientUnits="userSpaceOnUse" x1="-247.10899353027344" y1="-374.218994140625" x2="455.6090087890625" y2="340.81201171875"><stop offset="0%" stop-color="rgb(227,227,5)"/><stop offset="50%" stop-color="rgb(255,130,134)"/><stop offset="100%" stop-color="rgb(150,225,237)"/></linearGradient></defs><g clip-path="url(#__lottie_element_2)"><g transform="matrix(1,0,0,1,750,750)" opacity="1" style="display: block;"><g opacity="1" transform="matrix(1,0,0,1,0,0)"><path fill="url(#__lottie_element_6)" fill-opacity="1" d=" M50.72444152832031,-518.8291015625 C-47.54018020629883,-513.9579467773438 -142.43475341796875,-448.1745300292969 -244.77952575683594,-421.06915283203125 C-407.80328369140625,-381.12554931640625 -536.7660522460938,-260.36279296875 -551.5864868164062,-88.53606414794922 C-565.9967041015625,86.88520050048828 -384.866943359375,457.296630859375 -181.70944213867188,523.0750122070312 C-49.88524627685547,566.327880859375 67.5898208618164,524.4044799804688 171.23281860351562,508.90045166015625 C304.2668151855469,488.99945068359375 427.1588134765625,342.9737243652344 476.0348205566406,260.0127258300781 C552.0347900390625,131.01272583007812 576.5115356445312,-46.32796859741211 503.93316650390625,-197.1331787109375 C434.1000061035156,-341.5331726074219 334.9344177246094,-533.0491943359375 50.72444152832031,-518.8291015625z"/></g></g></g></svg>